<?xml version="1.0" encoding="UTF-8"?>
<svg xmlns="http://www.w3.org/2000/svg" xmlns:xlink="http://www.w3.org/1999/xlink" preserveAspectRatio="xMidYMid" width="35" height="35" viewBox="0 0 35 35"> <defs> <style> .cls-1 { fill: #e8cb0f; } .cls-2 { fill: #2a363b; fill-rule: evenodd; } </style> </defs> <g> <circle cx="17.5" cy="17.5" r="17.5" class="cls-1"/> <path d="M23.441,20.001 C22.882,19.420 22.154,19.420 21.571,20.001 L20.259,21.306 C20.138,21.427 20.040,21.450 19.895,21.380 C19.630,21.213 19.312,21.092 19.046,20.921 C17.782,20.121 16.713,19.104 15.766,17.947 C15.304,17.366 14.894,16.762 14.600,16.060 C14.553,15.916 14.553,15.842 14.675,15.721 C15.137,15.308 15.547,14.876 15.986,14.439 C16.592,13.835 16.592,13.133 15.986,12.529 L14.941,11.488 C14.576,11.126 14.236,10.764 13.872,10.424 C13.312,9.867 12.584,9.867 12.001,10.424 L10.690,11.730 C10.275,12.144 10.060,12.627 10.009,13.180 C9.934,14.077 10.154,14.945 10.471,15.791 C11.129,17.556 12.123,19.080 13.312,20.507 C14.941,22.444 16.881,23.968 19.144,25.056 C20.166,25.539 21.211,25.924 22.326,25.999 C23.129,26.045 23.810,25.831 24.365,25.223 C24.729,24.786 25.168,24.424 25.555,24.015 C26.138,23.411 26.138,22.686 25.555,22.105 L23.441,20.001 Z" class="cls-2"/> </g> </svg>